<svg xmlns:xlink="http://www.w3.org/1999/xlink" xmlns="http://www.w3.org/2000/svg" viewBox="0 0 25 24" fill="transparent" class="no-stroke" width="25"  height="24" ><path d="M24.7549184,9.39130435 C24.8941248,9.39130435 25,9.50906892 25,9.63664721 L25,9.63664721 L25,23.7546571 C25,23.8900864 24.8941248,24 24.7549184,24 L24.7549184,24 L10.6617482,24 C10.5245026,24 10.4166667,23.8900864 10.4166667,23.7546571 L10.4166667,23.7546571 L10.4166667,9.63664721 C10.4166667,9.50906892 10.5245026,9.39130435 10.6617482,9.39130435 L10.6617482,9.39130435 Z M19.0258918,12.1823248 L16.3535225,12.1823248 L13.596845,21.2089795 L15.7104284,21.2089795 L16.3535225,18.8909801 L18.9357018,18.8909801 L19.6317334,21.2089795 L21.8217823,21.2089795 L19.0258918,12.1823248 Z M5.58634501,15.6521739 L5.58634501,18.7750381 L8.85416667,18.7750381 L8.85416667,20.8695652 L5.252577,20.8695652 L3.64583333,19.1514642 L3.64583333,15.6521739 L5.58634501,15.6521739 Z M17.6919291,13.5652174 C17.8272638,14.1003991 17.9954068,14.7669257 18.1635499,15.3021074 L18.1635499,15.3021074 L18.75,17.2173913 L16.6666667,17.2173913 L17.22646,15.3021074 C17.3802493,14.7826087 17.5237861,14.1003991 17.6591207,13.5652174 L17.6591207,13.5652174 Z M14.3383835,0 C14.4755554,0 14.5833333,0.107965367 14.5833333,0.245375834 L14.5833333,0.245375834 L14.5833333,7.96784408 L10.2193071,7.96784408 C9.68237705,7.96784408 9.23950775,8.4134466 9.23950775,8.94934742 L9.23950775,8.94934742 L9.23950775,9.71688303 C9.04746708,9.5323604 8.8632648,9.34783777 8.68102213,9.14172207 C10.0429432,7.54579765 10.8169847,5.9734293 10.9698334,4.45602515 L10.9698334,4.45602515 L11.6419757,4.45602515 L11.6419757,2.83065562 L8.30477918,2.83065562 L8.30477918,1.93356157 L6.74297904,1.93356157 L6.74297904,2.83065562 L3.4057825,2.83065562 L3.4057825,4.45602515 L9.46878079,4.45602515 C9.32377049,5.55334587 8.74176969,6.7095568 7.75413195,7.9148429 C6.75865583,6.34247456 6.34518051,4.81721837 6.34518051,4.80151432 L6.34518051,4.80151432 L6.30794813,4.65428882 L4.85980471,5.02333407 L4.89899669,5.16859657 C4.92251187,5.25300585 5.42024993,7.15515932 6.71358506,9.04946076 C5.41734973,10.319055 4.12774881,11.1732769 3.91750125,11.3140556 L3.88784377,11.3344005 L3.76634865,11.4109578 L4.55410732,12.6751341 L4.68540043,12.5907248 C4.83824913,12.5004265 6.2080086,11.6170735 7.63851563,10.2292278 C8.1362537,10.7827956 8.67318373,11.2421392 9.23950775,11.6249255 L9.23950775,11.6249255 L9.23950775,14.6086957 L0.244949834,14.6086957 C0.107777927,14.6086957 0,14.5007303 0,14.3633198 L0,14.3633198 L0,0.245375834 C0,0.107965367 0.107777927,0 0.244949834,0 L0.244949834,0 Z" fill="#FFFFFF"></path></svg>