<svg xmlns="http://www.w3.org/2000/svg" x="0px" y="0px"
width="30" height="30"
viewBox="0 0 172 172"
style=" fill:#000000;"><g fill="none" fill-rule="nonzero" stroke="none" stroke-width="1" stroke-linecap="butt" stroke-linejoin="miter" stroke-miterlimit="10" stroke-dasharray="" stroke-dashoffset="0" font-family="none" font-weight="none" font-size="none" text-anchor="none" style="mix-blend-mode: normal"><path d="M0,172v-172h172v172z" fill="none"></path><g id="original-icon" fill="#ffffff"><path d="M6.88,0c-1.80062,0 -3.64156,0.63156 -4.945,1.935c-1.30344,1.30344 -1.935,3.14438 -1.935,4.945v158.24c0,1.80063 0.63156,3.64156 1.935,4.945c1.30344,1.30344 3.14438,1.935 4.945,1.935h158.24c1.80063,0 3.64156,-0.63156 4.945,-1.935c1.30344,-1.30344 1.935,-3.14437 1.935,-4.945v-158.24c0,-1.80062 -0.63156,-3.64156 -1.935,-4.945c-1.30344,-1.30344 -3.14437,-1.935 -4.945,-1.935zM6.88,6.88h158.24v158.24h-158.24zM82.8825,34.4v9.675c-19.26937,1.03469 -22.6825,15.39938 -22.6825,21.93c0,32.33063 47.085,15.13063 47.085,39.56c0,3.09063 -0.67187,16.8775 -20.9625,16.8775c-0.68531,0 -21.64781,0.06719 -20.9625,-21.6075h-7.2025c0.68531,23.04531 15.43969,26.05531 24.725,27.09v9.675h6.88v-9.675c23.04531,-1.72 24.4025,-18.92 24.4025,-22.36c0,-30.96 -47.085,-15.07687 -47.085,-38.8075c0,-7.91469 3.07719,-17.2 19.2425,-17.2c16.51469,0 18.57063,13.07469 18.92,18.92h7.2025c0.68531,-9.63469 -6.16781,-23.71719 -22.6825,-24.4025v-9.675z"></path></g></g></svg>