<svg xmlns="http://www.w3.org/2000/svg" x="0px" y="0px"
width="30" height="30"
viewBox="0 0 172 172"
style=" fill:#000000;"><g fill="none" fill-rule="nonzero" stroke="none" stroke-width="1" stroke-linecap="butt" stroke-linejoin="miter" stroke-miterlimit="10" stroke-dasharray="" stroke-dashoffset="0" font-family="none" font-weight="none" font-size="none" text-anchor="none" style="mix-blend-mode: normal"><path d="M0,172v-172h172v172z" fill="none"></path><g id="original-icon" fill="#ffffff"><path d="M82.56,20.64v10.52156c-12.60191,0.99601 -20.02218,7.25846 -23.62985,13.57187c-3.93013,6.87774 -3.89015,13.74656 -3.89015,13.74656c0,8.75926 4.17378,15.3468 9.86985,19.97485c5.69606,4.62805 12.83281,7.68625 19.71281,10.69625c6.88,3.01 13.50325,5.9718 18.12719,9.72875c4.62394,3.75695 7.33015,7.91941 7.33015,14.64015c0,0 -0.03997,5.17117 -2.98985,10.33344c-2.94987,5.16227 -8.33349,10.30656 -21.09015,10.30656c-12.61333,0 -17.97306,-5.79908 -21.00281,-11.8586c-3.02976,-6.05951 -3.07719,-12.2214 -3.07719,-12.2214h-6.88c0,0 -0.04744,7.59811 3.80281,15.2986c3.54219,7.08439 10.94948,14.3699 23.71719,15.49344v10.48797h6.88v-10.52156c12.60191,-0.99601 20.02218,-7.25846 23.62985,-13.57187c3.93013,-6.87774 3.89015,-13.74656 3.89015,-13.74656c0,-8.75926 -4.17378,-15.3468 -9.86985,-19.97485c-5.69606,-4.62805 -12.83281,-7.68625 -19.71281,-10.69625c-6.88,-3.01 -13.50325,-5.9718 -18.12719,-9.72875c-4.62394,-3.75695 -7.33015,-7.91941 -7.33015,-14.64015c0,0 0.03997,-5.17117 2.98985,-10.33344c2.94987,-5.16227 8.33349,-10.30656 21.09015,-10.30656c12.61333,0 17.97306,5.79908 21.00281,11.8586c3.02976,6.05951 3.07719,12.2214 3.07719,12.2214h6.88c0,0 0.04744,-7.59811 -3.80281,-15.2986c-3.54219,-7.08439 -10.94948,-14.3699 -23.71719,-15.49344v-10.48797zM140.88547,30.92641c-1.39906,0.04928 -2.62875,0.9414 -3.10977,2.25609c-0.48102,1.3147 -0.11745,2.78976 0.91946,3.73031l19.41719,18.12719h-34.9375c0.43344,2.38392 0.66515,4.70936 0.66515,6.88h34.27235l-19.41719,18.12719c-0.96286,0.82147 -1.39693,2.10527 -1.13012,3.3425c0.26681,1.23722 1.19139,2.22804 2.40723,2.57967c1.21584,0.35163 2.52656,0.00728 3.41258,-0.89654l28.49422,-26.59281l-28.49422,-26.59281c-0.66919,-0.64464 -1.57069,-0.99118 -2.49938,-0.96078zM6.88,55.04c-1.90232,0 -3.44,1.53768 -3.44,3.44c0,1.90232 1.53768,3.44 3.44,3.44h41.46813c-0.10664,-1.11456 -0.18813,-2.24976 -0.18813,-3.44c0,-1.10424 0.08756,-2.26352 0.22172,-3.44zM30.89281,85.9664c-0.89371,0.02663 -1.74194,0.40014 -2.365,1.04141l-26.51219,26.51219l26.51219,26.51219c0.86281,0.89866 2.14404,1.26066 3.34955,0.94639c1.20551,-0.31427 2.14694,-1.2557 2.46121,-2.46121c0.31427,-1.20551 -0.04773,-2.48674 -0.94639,-3.34955l-18.20781,-18.20781h33.64078c-0.43344,-2.38392 -0.66515,-4.70936 -0.66515,-6.88h-32.97562l18.20781,-18.20781c1.01742,-0.98897 1.32333,-2.50111 0.77034,-3.80778c-0.55299,-1.30667 -1.85145,-2.13983 -3.26971,-2.098zM123.65187,110.08c0.10664,1.11456 0.18813,2.24976 0.18813,3.44c0,1.10424 -0.08756,2.26352 -0.22172,3.44h43.22172c1.90232,0 3.44,-1.53768 3.44,-3.44c0,-1.90232 -1.53768,-3.44 -3.44,-3.44z"></path></g></g></svg>