<svg xmlns:xlink="http://www.w3.org/1999/xlink" xmlns="http://www.w3.org/2000/svg" viewBox="0 0 28 28" width="28"  height="28" ><path stroke="#FFFFFF" stroke-linecap="round" stroke-linejoin="round" d="M7 24l5.625-4 2.578 2.8L22 18" fill="#FFFFFF"></path><mask id="eglcia4u7a" fill="#FFFFFF"><path fill-rule="evenodd" d="M16.75 14.898C18.095 14.12 19 12.666 19 11c0-2.485-2.015-4.5-4.5-4.5S10 8.515 10 11c0 1.666.905 3.12 2.25 3.898V16.5c0 .552.448 1 1 1h2.5c.552 0 1-.448 1-1v-1.602z" clip-rule="evenodd" fill="#FFFFFF"></path></mask><path fill="#FFFFFF" d="M16.75 14.898l-.5-.866c-.31.18-.5.509-.5.866h1zm-4.5 0h1c0-.357-.19-.687-.5-.866l-.5.866zM18 11c0 1.294-.702 2.426-1.75 3.032l1 1.732C18.893 14.814 20 13.037 20 11h-2zm-3.5-3.5c1.933 0 3.5 1.567 3.5 3.5h2c0-3.038-2.462-5.5-5.5-5.5v2zM11 11c0-1.933 1.567-3.5 3.5-3.5v-2C11.462 5.5 9 7.962 9 11h2zm1.75 3.032C11.703 13.426 11 12.294 11 11H9c0 2.037 1.108 3.814 2.75 4.764l1-1.732zm.5 2.468v-1.602h-2V16.5h2zm0 0h-2c0 1.105.895 2 2 2v-2zm2.5 0h-2.5v2h2.5v-2zm0 0v2c1.105 0 2-.895 2-2h-2zm0-1.602V16.5h2v-1.602h-2z" mask="url(#eglcia4u7a)"></path><path stroke="#FFFFFF" d="M13 15.5L16 15.5" fill="#FFFFFF"></path><path stroke="#FFFFFF" stroke-linecap="round" d="M14.5 13.5L14.5 15.5M14.5 10.5L14.5 11.5M14.5 3.5V5M8.707 6L9.414 6.707M19 6.707L19.707 6M21.5 10.5L20.5 10.5M8.5 10.5L7.5 10.5" fill="#FFFFFF"></path></svg>